RBDS010runT35_grf
version=1
nRows=18
nColumns=19
inDegrees=no
endheader
time	ground_force_r_vx	ground_force_r_vy	ground_force_r_vz	ground_force_r_px	ground_force_r_py	ground_force_r_pz	ground_force_r_mx	ground_force_r_my	ground_force_r_mz	ground_force_l_vx	ground_force_l_vy	ground_force_l_vz	ground_force_l_px	ground_force_l_py	ground_force_l_pz	ground_force_l_mx	ground_force_l_my	ground_force_l_mz
     22.49800000	      0.00000000	      0.00000000	      0.00000000	      0.00000000	      0.00000000	      0.00000000	      0.00000000	      0.00000000	      0.00000000	   -184.94306900	   1418.90427749	    -17.43906983	      2.41354957	      0.00000000	      0.96598820	      0.00000000	     12.82145175	     -0.00000000
     22.49900000	      0.00000000	      0.00000000	      0.00000000	      0.00000000	      0.00000000	      0.00000000	      0.00000000	      0.00000000	      0.00000000	   -184.53853592	   1431.83745111	    -17.75182945	      2.41047507	      0.00000000	      0.96622309	      0.00000000	     12.93389571	     -0.00000000
     22.50000000	      0.00000000	      0.00000000	      0.00000000	      0.00000000	      0.00000000	      0.00000000	      0.00000000	      0.00000000	      0.00000000	   -184.13400283	   1444.77062474	    -18.06458907	      2.40740057	      0.00000000	      0.96645798	      0.00000000	     13.04633967	     -0.00000000
     22.50100000	      0.00000000	      0.00000000	      0.00000000	      0.00000000	      0.00000000	      0.00000000	      0.00000000	      0.00000000	      0.00000000	   -183.21229189	   1456.13708878	    -18.25776934	      2.40435614	      0.00000000	      0.96659672	      0.00000000	     13.19446420	     -0.00000000
     22.50200000	      0.00000000	      0.00000000	      0.00000000	      0.00000000	      0.00000000	      0.00000000	      0.00000000	      0.00000000	      0.00000000	   -182.29058095	   1467.50355281	    -18.45094962	      2.40131171	      0.00000000	      0.96673547	      0.00000000	     13.34258873	     -0.00000000
     22.50300000	      0.00000000	      0.00000000	      0.00000000	      0.00000000	      0.00000000	      0.00000000	      0.00000000	      0.00000000	      0.00000000	   -181.36887001	   1478.87001685	    -18.64412989	      2.39826728	      0.00000000	      0.96687422	      0.00000000	     13.49071327	     -0.00000000
     22.50400000	      0.00000000	      0.00000000	      0.00000000	      0.00000000	      0.00000000	      0.00000000	      0.00000000	      0.00000000	      0.00000000	   -180.09859466	   1489.22539431	    -18.74684388	      2.39524174	      0.00000000	      0.96695568	      0.00000000	     13.66452624	     -0.00000000
     22.50500000	      0.00000000	      0.00000000	      0.00000000	      0.00000000	      0.00000000	      0.00000000	      0.00000000	      0.00000000	      0.00000000	   -178.65403711	   1499.07522848	    -18.80432471	      2.39222564	      0.00000000	      0.96700849	      0.00000000	     13.85118343	     -0.00000000
     22.50600000	      0.00000000	      0.00000000	      0.00000000	      0.00000000	      0.00000000	      0.00000000	      0.00000000	      0.00000000	      0.00000000	   -177.20947956	   1508.92506264	    -18.86180555	      2.38920954	      0.00000000	      0.96706131	      0.00000000	     14.03784063	     -0.00000000
     22.50700000	      0.00000000	      0.00000000	      0.00000000	      0.00000000	      0.00000000	      0.00000000	      0.00000000	      0.00000000	      0.00000000	   -175.59060730	   1518.28762466	    -18.87150025	      2.38620187	      0.00000000	      0.96708917	      0.00000000	     14.23748805	     -0.00000000
     22.50800000	      0.00000000	      0.00000000	      0.00000000	      0.00000000	      0.00000000	      0.00000000	      0.00000000	      0.00000000	      0.00000000	   -173.62310562	   1526.67564238	    -18.78562267	      2.38321106	      0.00000000	      0.96706713	      0.00000000	     14.46311591	     -0.00000000
     22.50900000	      0.00000000	      0.00000000	      0.00000000	      0.00000000	      0.00000000	      0.00000000	      0.00000000	      0.00000000	      0.00000000	   -171.65560394	   1535.06366010	    -18.69974509	      2.38022024	      0.00000000	      0.96704508	      0.00000000	     14.68874378	     -0.00000000
     22.51000000	      0.00000000	      0.00000000	      0.00000000	      0.00000000	      0.00000000	      0.00000000	      0.00000000	      0.00000000	      0.00000000	   -169.68810226	   1543.45167781	    -18.61386750	      2.37722942	      0.00000000	      0.96702304	      0.00000000	     14.91437165	     -0.00000000
     22.51100000	      0.00000000	      0.00000000	      0.00000000	      0.00000000	      0.00000000	      0.00000000	      0.00000000	      0.00000000	      0.00000000	   -167.20345013	   1550.43486994	    -18.38534082	      2.37425969	      0.00000000	      0.96693774	      0.00000000	     15.17702751	     -0.00000000
     22.51200000	      0.00000000	      0.00000000	      0.00000000	      0.00000000	      0.00000000	      0.00000000	      0.00000000	      0.00000000	      0.00000000	   -164.71879799	   1557.41806206	    -18.15681414	      2.37128996	      0.00000000	      0.96685244	      0.00000000	     15.43968337	     -0.00000000
     22.51300000	      0.00000000	      0.00000000	      0.00000000	      0.00000000	      0.00000000	      0.00000000	      0.00000000	      0.00000000	      0.00000000	   -162.23414586	   1564.40125418	    -17.92828746	      2.36832024	      0.00000000	      0.96676714	      0.00000000	     15.70233923	     -0.00000000
     22.51400000	      0.00000000	      0.00000000	      0.00000000	      0.00000000	      0.00000000	      0.00000000	      0.00000000	      0.00000000	      0.00000000	   -159.41265824	   1570.48580703	    -17.61035701	      2.36536118	      0.00000000	      0.96664756	      0.00000000	     15.98690797	     -0.00000000
     22.51500000	      0.00000000	      0.00000000	      0.00000000	      0.00000000	      0.00000000	      0.00000000	      0.00000000	      0.00000000	      0.00000000	   -156.42275287	   1576.12104023	    -17.24772468	      2.36240746	      0.00000000	      0.96651085	      0.00000000	     16.28243317	     -0.00000000
